# File created by Blade
# Date/Time:  Wed Jan 21 16:20:01 2015
# Frame Rate: 120.000 fps
#------------------------------------------------------
:FULLY-SPECIFIED
:DEGREES
384
root 19.204653 35.867340 -22.468765 -188.757468 47.371214 -175.897430
Spine 7.148365 43.989432 9.026070
Head 46.699521 51.888751 28.831865
LeftShoulder -20.874684 -24.273580 14.005460
LeftArm -39.163809 -7.528175 -19.558123
LeftForeArm -16.926136 0.000000 2.578589
LeftHand -7.546956 0.000000 7.752972
LeftHandThumb1 -26.253704 0.000000 33.147579
RightShoulder -9.552928 -13.702684 8.883763
RightArm 18.932348 -8.752389 47.860261
RightForeArm -58.328219 0.000000 74.820467
RightHand 1.780097 0.000000 32.585681
RightHandThumb1 -24.326973 -0.000000 -32.862282
LeftUpLeg -73.662869 -32.829320 -19.081207
LeftLeg 90.934042 -0.000000 -0.000000
LeftFoot 31.257598 17.364384 -2.093114
LeftToeBase -176.421670 -0.000000 0.000000
RightUpLeg 17.851740 17.366183 12.938467
RightLeg 2.679936 -0.000000 -0.000000
RightFoot -15.252017 -4.616473 13.591401
RightToeBase 18.736196 -0.000000 -0.000000
385
root 19.200747 35.867421 -22.449592 -188.772226 46.975326 -175.953469
Spine 7.124367 43.862184 8.838704
Head 46.546392 51.722327 28.810936
LeftShoulder -20.744826 -24.249634 13.928557
LeftArm -39.082531 -7.483180 -19.718326
LeftForeArm -16.596569 -0.000000 2.760089
LeftHand -7.501649 -0.000000 8.156926
LeftHandThumb1 -26.253704 0.000000 33.147579
RightShoulder -9.534318 -13.652305 9.014331
RightArm 19.512551 -9.106378 47.394007
RightForeArm -57.946936 -0.000000 74.049716
RightHand 1.780277 -0.000000 32.120563
RightHandThumb1 -24.326973 -0.000000 -32.862282
LeftUpLeg -73.574135 -32.591724 -19.181577
LeftLeg 90.924599 -0.000000 -0.000000
LeftFoot 31.350336 17.407800 -2.111038
LeftToeBase -176.272961 -0.000000 0.000000
RightUpLeg 17.777567 17.319033 12.958217
RightLeg 2.721473 -0.000000 -0.000000
RightFoot -15.307595 -4.887803 13.532833
RightToeBase 18.477765 -0.000000 -0.000000
386
root 19.197059 35.867499 -22.426264 -188.770550 46.587117 -176.017640
Spine 7.059547 43.704320 8.603604
Head 46.426475 51.572884 28.844700
LeftShoulder -20.608686 -24.252401 13.877895
LeftArm -39.061192 -7.503206 -19.795326
LeftForeArm -16.562155 0.000000 2.948745
LeftHand -7.252478 0.000000 7.997836
LeftHandThumb1 -26.253704 0.000000 33.147579
RightShoulder -9.579378 -13.864974 9.192750
RightArm 20.440967 -9.420216 46.800981
RightForeArm -57.489396 -0.000000 73.197280
RightHand 1.700382 -0.000000 31.632564
RightHandThumb1 -24.326973 -0.000000 -32.862282
LeftUpLeg -73.507588 -32.317032 -19.267403
LeftLeg 90.920499 -0.000000 -0.000000
LeftFoot 31.392769 17.218079 -2.011174
LeftToeBase -176.266073 -0.000000 0.000000
RightUpLeg 17.659919 17.256534 12.955514
RightLeg 2.783117 -0.000000 -0.000000
RightFoot -15.336965 -5.148363 13.479301
RightToeBase 18.053445 -0.000000 -0.000000
387
root 19.197368 35.872035 -22.402546 -188.858002 46.219052 -176.125531
Spine 7.082078 43.555543 8.378247
Head 46.289315 51.390452 28.893345
LeftShoulder -20.414664 -24.283768 13.761885
LeftArm -39.080453 -7.438314 -19.864483
LeftForeArm -16.420889 -0.000000 3.142064
LeftHand -7.456387 -0.000000 8.318836
LeftHandThumb1 -26.253704 0.000000 33.147579
RightShoulder -9.524004 -13.938476 9.367207
RightArm 21.195615 -9.836773 46.124397
RightForeArm -57.087605 0.000000 72.368975
RightHand 1.803929 -0.000000 30.859059
RightHandThumb1 -24.326973 -0.000000 -32.862282
LeftUpLeg -73.363130 -31.942256 -19.426408
LeftLeg 90.914183 -0.000000 -0.000000
LeftFoot 31.364940 17.063789 -2.026807
LeftToeBase -176.464278 -0.000000 0.000000
RightUpLeg 17.634443 17.239774 12.967728
RightLeg 2.807661 -0.000000 -0.000000
RightFoot -15.357937 -5.464113 13.443434
RightToeBase 17.730733 -0.000000 -0.000000
